<svg width="1200" height="840" viewBox="0 0 1200 840" fill="none" xmlns="http://www.w3.org/2000/svg">
  <rect width="1200" height="840" rx="56" fill="#07111f"/>
  <circle cx="980" cy="130" r="260" fill="#0ea5e9" opacity=".18"/>
  <circle cx="220" cy="720" r="280" fill="#2563eb" opacity=".22"/>
  <rect x="150" y="150" width="900" height="540" rx="34" fill="#0f1b2d" stroke="#60a5fa" stroke-opacity=".35" stroke-width="2"/>
  <rect x="190" y="195" width="820" height="62" rx="20" fill="#16243a"/>
  <circle cx="230" cy="226" r="9" fill="#38bdf8"/><circle cx="260" cy="226" r="9" fill="#60a5fa"/><circle cx="290" cy="226" r="9" fill="#93c5fd"/>
  <rect x="220" y="315" width="360" height="54" rx="14" fill="#38bdf8" opacity=".9"/>
  <rect x="220" y="395" width="280" height="20" rx="10" fill="#bfdbfe" opacity=".65"/>
  <rect x="220" y="435" width="420" height="20" rx="10" fill="#bfdbfe" opacity=".35"/>
  <rect x="220" y="500" width="170" height="58" rx="18" fill="#2563eb"/>
  <rect x="690" y="315" width="260" height="280" rx="30" fill="#081120" stroke="#38bdf8" stroke-opacity=".45"/>
  <path d="M750 520L812 410L868 472L910 386" stroke="#38bdf8" stroke-width="16" stroke-linecap="round" stroke-linejoin="round"/>
</svg>
